<?xml version="1.0" standalone="no"?>
<!DOCTYPE svg PUBLIC "-//W3C//DTD SVG 20010904//EN"
 "http://www.w3.org/TR/2001/REC-SVG-20010904/DTD/svg10.dtd">
<svg version="1.0" xmlns="http://www.w3.org/2000/svg"
 width="2012.000000pt" height="2012.000000pt" viewBox="0 0 2012.000000 2012.000000"
 preserveAspectRatio="xMidYMid meet">
<metadata>
Created by potrace 1.14, written by Peter Selinger 2001-2017
</metadata>
<g transform="translate(0.000000,2012.000000) scale(0.100000,-0.100000)"
fill="#000000" stroke="none">
<path d="M0 11718 c0 -3048 2 -5539 4 -5537 4 5 36 156 41 200 2 16 16 75 30
131 15 57 38 148 52 203 14 55 36 138 49 185 30 107 30 138 1 45 l-23 -69 3
109 c2 61 8 125 14 142 6 18 7 38 3 44 -4 7 -3 9 4 5 7 -4 15 15 22 51 6 32
14 67 17 78 4 11 7 29 8 40 5 72 18 146 26 151 5 3 9 18 9 33 0 15 3 31 7 35
4 4 8 13 8 19 1 7 4 24 8 40 4 15 9 38 12 51 3 14 11 31 18 38 35 37 51 76 56
141 1 5 5 5 11 2 6 -3 10 4 10 16 0 27 21 101 32 113 4 6 8 16 8 24 0 7 11 28
24 45 14 18 40 62 59 97 18 36 43 83 55 105 35 65 82 174 82 189 0 8 4 16 8
18 11 4 102 173 102 188 0 6 9 20 20 32 11 12 20 27 20 33 0 7 17 40 38 74 20
34 44 74 53 89 10 15 38 69 64 120 26 50 51 92 55 92 4 0 11 11 14 24 3 14 12
31 19 38 7 7 26 36 41 63 16 28 33 53 38 56 6 3 9 10 9 15 -1 5 12 30 29 55
16 26 30 52 30 58 0 6 3 11 8 11 4 0 13 14 20 30 8 17 19 36 25 43 19 20 65
90 78 120 7 15 17 27 22 27 6 0 8 3 4 6 -6 6 1 17 35 55 10 10 15 19 12 19 -3
0 1 7 8 15 27 29 38 44 38 50 0 4 57 88 83 120 4 6 26 39 50 75 23 36 44 67
47 70 3 3 23 30 45 60 35 48 92 123 183 239 15 18 31 41 36 49 8 15 50 63 83
98 7 7 13 16 13 21 0 5 8 16 18 25 9 9 25 28 35 42 10 15 23 23 29 20 6 -4 8
-3 5 3 -7 12 69 113 84 113 6 0 7 5 4 10 -3 6 -2 10 3 10 5 0 20 15 33 34 13
19 27 32 31 30 4 -3 8 0 8 7 0 6 15 24 33 40 17 16 29 29 25 29 -4 0 5 12 20
27 15 15 30 27 35 25 4 -1 7 2 7 6 0 11 36 54 124 147 36 39 66 76 66 83 0 6
7 12 15 12 8 0 15 4 15 8 0 5 52 62 115 126 63 65 115 122 115 127 0 5 3 8 8
7 4 -1 46 36 93 83 48 46 96 90 107 98 12 8 19 18 16 23 -3 4 -1 8 4 8 11 0
89 66 141 120 19 19 39 35 45 35 6 1 10 6 9 11 -1 6 8 17 19 25 22 15 143 114
215 175 23 20 53 44 65 52 13 9 27 22 31 29 4 7 12 13 18 13 5 0 20 11 33 25
13 14 26 25 30 25 3 0 32 21 64 46 31 25 72 58 91 73 18 14 48 38 65 52 17 14
52 40 79 58 26 17 59 43 73 56 15 14 33 25 41 25 8 0 12 4 9 9 -5 8 17 23 36
25 5 1 22 15 40 31 18 17 28 24 23 16 -5 -10 -4 -12 3 -7 7 4 12 14 12 22 0 8
3 13 8 11 14 -9 53 13 46 24 -4 7 -3 9 3 6 5 -4 19 2 30 12 11 10 29 22 41 25
12 4 22 13 22 19 0 11 58 55 85 66 6 2 27 17 47 33 21 16 38 26 38 21 0 -4 5
0 11 10 5 9 16 17 24 17 7 0 15 4 17 8 4 11 118 77 147 87 12 3 19 10 16 15
-5 8 24 22 37 17 3 -1 17 8 30 20 27 24 57 42 228 131 69 36 137 73 151 83 14
10 29 16 33 12 3 -3 6 -1 6 5 0 7 7 12 15 12 8 0 15 5 15 11 0 5 4 8 9 4 5 -3
13 -1 16 5 4 6 24 18 46 27 21 8 39 19 39 24 0 5 5 9 11 9 5 0 31 10 57 22 26
12 49 22 52 23 3 0 34 16 70 34 158 83 371 182 393 184 9 1 17 4 17 7 0 8 78
46 143 69 32 12 75 30 96 41 21 10 41 17 44 14 2 -3 22 5 43 16 41 24 129 57
319 122 66 22 165 56 220 76 55 19 109 35 120 36 11 0 22 3 25 6 9 10 431 132
470 136 14 1 61 12 105 24 44 12 120 30 169 41 48 10 105 23 125 29 39 10 288
59 330 65 35 4 267 42 311 50 19 3 49 8 65 10 53 6 99 14 150 24 28 5 91 12
140 16 50 3 101 8 115 10 14 2 54 7 90 10 36 2 97 7 135 10 39 3 124 11 190
17 197 20 1062 16 1340 -5 127 -10 246 -20 265 -22 19 -2 85 -9 145 -15 61 -7
184 -22 275 -35 91 -13 183 -26 205 -29 118 -17 393 -68 565 -106 52 -11 115
-25 140 -30 25 -5 55 -12 68 -14 12 -3 64 -16 115 -30 50 -13 128 -34 172 -46
106 -28 258 -69 270 -73 6 -2 17 -6 25 -10 18 -6 121 -38 135 -42 6 -1 17 -4
25 -7 8 -3 42 -13 75 -23 33 -10 65 -23 72 -27 6 -5 22 -10 35 -12 13 -1 43
-12 67 -23 24 -12 51 -19 59 -15 11 4 13 1 7 -7 -6 -10 -2 -11 15 -6 15 5 20
4 16 -4 -4 -7 0 -11 12 -11 10 0 32 -7 48 -15 17 -8 48 -17 70 -21 21 -3 42
-11 46 -18 4 -6 8 -8 8 -4 0 4 20 -4 45 -18 25 -14 50 -22 55 -19 6 3 10 2 10
-3 0 -5 21 -17 47 -27 27 -9 72 -28 101 -42 29 -13 57 -21 62 -18 6 3 10 2 10
-3 0 -9 37 -25 53 -23 4 1 7 -4 7 -11 0 -6 3 -8 7 -5 3 4 12 2 19 -3 6 -6 22
-13 34 -15 32 -6 100 -38 100 -47 0 -4 7 -5 15 -2 8 4 15 1 15 -6 0 -6 4 -9 9
-5 5 3 12 1 16 -5 4 -6 10 -8 15 -5 4 3 13 -2 20 -10 7 -8 18 -15 25 -15 7 0
39 -13 70 -30 31 -16 63 -30 70 -30 8 0 20 -6 27 -12 13 -13 75 -50 80 -48 10
3 68 -24 68 -31 0 -5 3 -8 8 -8 21 4 42 -3 56 -17 9 -8 16 -12 16 -7 0 4 4 4
8 -2 4 -5 34 -23 66 -40 33 -16 75 -39 93 -52 18 -12 33 -20 33 -17 0 3 12 -3
28 -13 42 -29 100 -53 127 -53 14 0 26 -7 29 -18 3 -10 43 -37 89 -61 45 -24
95 -53 112 -65 30 -21 106 -59 114 -56 2 1 7 -2 10 -7 3 -5 49 -33 101 -63 52
-30 97 -57 100 -60 3 -4 19 -14 35 -23 17 -8 39 -25 49 -36 11 -12 34 -29 52
-37 17 -8 58 -36 90 -62 32 -26 84 -63 114 -82 30 -19 67 -46 81 -60 14 -14
39 -32 55 -40 34 -18 40 -22 76 -52 14 -13 59 -48 98 -78 95 -72 244 -195 294
-243 22 -21 55 -49 73 -63 39 -30 75 -61 122 -106 18 -18 30 -26 26 -18 -3 8
1 6 9 -4 9 -11 16 -24 16 -30 0 -5 3 -7 6 -4 3 4 13 -1 23 -10 36 -35 175
-158 193 -170 10 -7 15 -19 12 -25 -4 -7 -4 -9 1 -5 10 9 54 -32 404 -383 290
-291 321 -323 321 -333 0 -3 10 -16 23 -29 12 -13 32 -37 45 -53 13 -16 42
-51 64 -79 22 -27 56 -68 77 -90 30 -33 94 -111 123 -150 4 -5 19 -24 33 -41
13 -17 22 -34 20 -38 -3 -3 -2 -4 2 -1 3 3 17 -10 30 -28 21 -30 57 -73 110
-136 13 -14 23 -29 23 -34 0 -4 12 -20 26 -36 14 -16 71 -87 125 -158 55 -70
105 -135 112 -143 7 -8 22 -35 35 -60 26 -53 56 -90 71 -90 6 0 11 -6 11 -14
0 -8 6 -21 13 -28 6 -7 19 -26 27 -43 8 -16 17 -32 20 -35 21 -19 82 -118 114
-182 21 -43 42 -78 47 -78 5 0 8 -3 7 -8 -4 -13 34 -82 63 -113 18 -20 29 -42
29 -60 0 -16 5 -29 10 -29 6 0 10 -6 10 -14 0 -8 21 -56 46 -107 25 -51 52
-109 59 -128 15 -40 97 -211 161 -332 7 -15 29 -63 48 -109 20 -45 42 -90 50
-99 8 -9 16 -32 17 -51 2 -19 9 -44 16 -55 6 -11 26 -60 43 -110 18 -49 36
-94 40 -100 7 -9 32 -87 36 -110 0 -5 6 -23 13 -40 30 -71 171 -538 174 -574
1 -11 4 -21 7 -21 4 0 7 -6 7 -12 1 -23 8 -42 21 -56 6 -7 12 -21 12 -30 0 -9
21 -75 46 -147 25 -71 49 -152 54 -180 10 -60 35 -159 44 -173 3 -5 8 -25 11
-43 8 -56 15 -91 30 -144 11 -41 45 -221 45 -241 0 -3 -4 -2 -10 1 -5 3 -10 2
-10 -4 0 -5 6 -14 13 -18 17 -10 28 -51 16 -58 -8 -6 -1 -36 12 -45 3 -3 9
-25 13 -50 3 -25 10 -62 15 -82 6 -24 5 -40 -2 -47 -8 -8 -8 -11 0 -11 6 0 14
-26 18 -57 4 -32 12 -66 17 -77 7 -13 7 -16 -1 -12 -6 4 -4 -12 5 -36 10 -27
13 -59 10 -85 -4 -27 -2 -43 5 -43 6 0 7 -5 4 -10 -8 -14 5 -121 15 -115 4 2
8 -30 8 -72 1 -42 4 -78 7 -81 3 -3 5 1537 5 3422 0 2739 -3 3426 -12 3420
-10 -6 -10 -4 0 7 9 10 12 531 12 2536 l0 2523 -10060 0 -10060 0 0 -5542z
m15575 5232 c3 -5 1 -10 -4 -10 -6 0 -11 5 -11 10 0 6 2 10 4 10 3 0 8 -4 11
-10z m-12095 -64 c0 -3 -4 -8 -10 -11 -5 -3 -10 -1 -10 4 0 6 5 11 10 11 6 0
10 -2 10 -4z m11381 -369 c-1 -12 -15 -9 -19 4 -3 6 1 10 8 8 6 -3 11 -8 11
-12z m-2833 -93 c4 -27 -26 -40 -46 -20 -21 20 -8 48 20 44 14 -2 24 -11 26
-24z m-8178 -15 c0 -5 -4 -9 -10 -9 -5 0 -10 7 -10 16 0 8 5 12 10 9 6 -3 10
-10 10 -16z m-1430 -63 c0 -3 -4 -8 -10 -11 -5 -3 -10 -1 -10 4 0 6 5 11 10
11 6 0 10 -2 10 -4z m-1405 -96 c0 -8 -8 -16 -17 -18 -13 -2 -18 3 -18 18 0
15 5 20 18 18 9 -2 17 -10 17 -18z m10065 -350 c0 -5 -4 -10 -10 -10 -5 0 -10
5 -10 10 0 6 5 10 10 10 6 0 10 -4 10 -10z m731 -535 c-1 -15 -24 -12 -29 3
-3 9 2 13 12 10 10 -1 17 -7 17 -13z m-6223 -803 c3 -16 -2 -22 -17 -22 -26 0
-36 17 -20 36 16 19 33 13 37 -14z m9212 -2 c0 -5 -4 -10 -10 -10 -5 0 -10 5
-10 10 0 6 5 10 10 10 6 0 10 -4 10 -10z m-14730 -270 c0 -5 -4 -10 -10 -10
-5 0 -10 5 -10 10 0 6 5 10 10 10 6 0 10 -4 10 -10z m5070 -130 c0 -5 -4 -10
-10 -10 -5 0 -10 5 -10 10 0 6 5 10 10 10 6 0 10 -4 10 -10z m-5070 -280 c0
-24 -26 -38 -42 -22 -16 16 -2 42 22 42 13 0 20 -7 20 -20z m5015 -280 c0 -8
-8 -16 -17 -18 -13 -2 -18 3 -18 18 0 15 5 20 18 18 9 -2 17 -10 17 -18z
m-345 -540 c0 -5 -7 -10 -16 -10 -8 0 -12 5 -9 10 3 6 10 10 16 10 5 0 9 -4 9
-10z m14070 -125 c0 -8 -4 -15 -10 -15 -5 0 -10 7 -10 15 0 8 5 15 10 15 6 0
10 -7 10 -15z m-2630 -385 c0 -5 -2 -10 -4 -10 -3 0 -8 5 -11 10 -3 6 -1 10 4
10 6 0 11 -4 11 -10z m-14250 -366 c0 -8 -9 -14 -20 -14 -19 0 -27 19 -14 33
10 9 34 -4 34 -19z m-1030 -104 c0 -5 -5 -10 -11 -10 -5 0 -7 5 -4 10 3 6 8
10 11 10 2 0 4 -4 4 -10z m-105 -430 c11 -17 -5 -50 -24 -50 -24 0 -43 23 -35
44 7 18 49 22 59 6z m17785 -760 c0 -5 -4 -10 -10 -10 -5 0 -10 5 -10 10 0 6
5 10 10 10 6 0 10 -4 10 -10z m-390 -90 c0 -5 -4 -10 -10 -10 -5 0 -10 5 -10
10 0 6 5 10 10 10 6 0 10 -4 10 -10z m730 -1350 c0 -5 -4 -10 -10 -10 -5 0
-10 5 -10 10 0 6 5 10 10 10 6 0 10 -4 10 -10z m505 -735 c0 -22 -31 -33 -47
-17 -17 17 -1 44 24 40 15 -2 23 -10 23 -23z m565 -50 c0 -8 -6 -15 -14 -15
-17 0 -28 14 -19 24 12 12 33 6 33 -9z"/>
<path d="M9943 13997 c-3 -5 -30 -8 -61 -8 -150 2 -379 -8 -444 -20 -93 -16
-100 -16 -117 -4 -12 8 -13 7 -6 -5 6 -12 5 -13 -5 -3 -9 9 -18 9 -33 1 -14
-7 -22 -7 -26 0 -4 7 -20 8 -46 2 -22 -5 -67 -12 -100 -16 -33 -3 -63 -11 -67
-18 -6 -8 -8 -7 -8 2 0 6 -7 12 -16 12 -8 0 -12 -4 -9 -10 3 -5 -1 -10 -9 -10
-9 0 -16 6 -16 13 0 8 -3 8 -9 -2 -11 -17 -91 -43 -91 -30 0 5 -12 9 -27 9
-14 0 -23 -3 -19 -7 10 -10 -193 -44 -226 -38 -16 2 -28 1 -28 -4 0 -5 -8 -8
-17 -7 -10 2 -33 -3 -51 -11 -19 -8 -43 -11 -55 -8 -15 4 -18 3 -9 -3 10 -7 5
-11 -19 -16 -20 -4 -38 -1 -47 6 -10 8 -13 9 -9 2 10 -16 -14 -23 -97 -29
-152 -11 -206 -21 -206 -40 0 -12 -44 -31 -62 -27 -5 1 -8 -5 -8 -13 0 -11
-11 -15 -39 -15 -21 0 -56 -6 -77 -14 -22 -7 -45 -11 -52 -9 -17 7 -72 -20
-72 -34 0 -7 -4 -13 -9 -13 -5 0 -8 -11 -8 -25 0 -14 -3 -28 -5 -30 -4 -4 -88
-13 -135 -15 -6 0 -25 -11 -41 -25 -29 -25 -34 -25 -146 -21 -106 4 -117 3
-126 -15 -6 -10 -14 -18 -18 -18 -19 3 -33 -4 -72 -36 -23 -19 -48 -35 -55
-35 -7 0 -24 -9 -39 -21 -14 -11 -26 -16 -26 -10 0 12 -30 9 -70 -7 l-25 -11
28 0 c30 -1 32 -4 15 -30 -6 -11 -8 -26 -3 -37 7 -17 8 -17 16 6 8 23 8 22 5
-5 -5 -34 6 -59 26 -61 7 0 24 -2 38 -3 20 -1 22 -3 10 -11 -8 -5 -10 -10 -4
-10 6 0 17 7 24 15 7 8 16 15 20 15 15 0 -2 -45 -24 -63 l-21 -18 22 11 c19 9
22 8 17 -5 -5 -13 -2 -15 20 -9 23 5 27 3 32 -25 8 -36 24 -52 24 -22 0 11 5
23 10 26 6 4 10 -6 10 -22 0 -17 10 -36 27 -50 l26 -23 -24 0 c-23 -1 -23 -1
-5 -15 18 -13 15 -20 -6 -16 -5 0 -8 -3 -8 -9 0 -5 -9 -10 -21 -10 -11 0 -30
-5 -41 -11 -14 -8 -23 -8 -31 0 -16 16 -40 14 -33 -4 10 -26 -20 -17 -32 10
-12 26 -26 32 -37 15 -8 -13 -25 -3 -25 15 0 7 10 16 23 18 21 4 20 4 -3 5
-14 1 -32 -3 -40 -8 -10 -6 -11 -10 -2 -10 6 0 12 -6 12 -14 0 -9 -8 -12 -24
-9 -13 3 -27 0 -30 -6 -4 -6 -14 -3 -26 9 -23 23 -112 28 -155 8 -25 -11 -34
-28 -15 -28 21 0 8 -16 -28 -33 -48 -23 -159 -18 -247 11 -33 11 -64 17 -70
14 -5 -4 -18 -5 -27 -4 -10 2 -18 0 -18 -5 0 -4 -24 -8 -53 -7 -28 0 -63 -3
-77 -8 -41 -13 -100 -16 -107 -6 -10 17 -77 2 -121 -26 -23 -14 -42 -23 -42
-20 0 4 -8 0 -17 -9 -10 -8 -31 -19 -47 -23 -16 -4 -41 -13 -55 -20 -14 -8
-33 -14 -42 -14 -9 0 -24 -9 -34 -20 -10 -11 -22 -17 -26 -14 -5 3 -17 -8 -27
-25 -10 -19 -28 -33 -47 -37 -16 -4 -24 -9 -17 -11 22 -8 14 -35 -8 -28 -15 5
-18 3 -14 -9 8 -21 -5 -20 -29 2 -11 9 -17 12 -14 6 7 -12 -26 -28 -50 -25 -7
1 -13 -2 -13 -7 0 -14 -38 -22 -44 -8 -3 7 -7 8 -13 1 -9 -11 -22 -15 -65 -23
-17 -2 -25 -9 -22 -17 6 -14 -29 -39 -40 -28 -3 3 -6 1 -6 -5 0 -10 -23 -22
-95 -52 -11 -5 -38 -14 -60 -21 -61 -18 -70 -24 -70 -50 0 -17 -8 -25 -33 -31
-17 -5 -32 -15 -32 -22 0 -8 -11 -21 -25 -30 -14 -9 -25 -22 -25 -29 0 -8 3
-7 9 2 8 13 14 13 38 2 26 -12 27 -14 8 -21 -11 -4 -28 -6 -38 -4 -10 2 -15
-1 -12 -7 4 -5 17 -9 31 -9 14 0 24 -6 24 -14 0 -16 -16 -24 -48 -21 -12 1
-22 -4 -22 -11 0 -7 -8 -10 -19 -7 -12 3 -17 11 -14 19 3 8 0 14 -5 14 -6 0
-14 -16 -18 -35 -6 -31 -9 -35 -38 -34 -26 0 -28 2 -11 8 11 5 23 7 27 4 4 -2
5 5 3 17 -2 11 0 22 6 25 18 12 9 25 -17 25 -14 0 -23 -4 -19 -10 3 -6 -1 -13
-10 -17 -10 -3 -21 0 -25 7 -7 11 -12 10 -25 -3 -19 -20 -25 -20 -59 -7 -16 6
-26 6 -26 0 0 -5 -8 -6 -17 -3 -13 5 -15 2 -10 -11 6 -15 1 -16 -33 -13 -22 2
-37 1 -35 -3 3 -4 -4 -15 -15 -25 -11 -10 -20 -14 -20 -9 0 5 -4 4 -8 -2 -4
-6 -25 -15 -47 -20 -29 -7 -44 -17 -53 -37 -7 -15 -22 -32 -33 -37 -10 -6 -19
-17 -19 -25 0 -8 -9 -15 -19 -15 -11 0 -23 -4 -26 -10 -3 -5 -1 -10 6 -10 8 0
8 -5 -3 -17 -26 -31 -68 -110 -61 -116 8 -9 -18 -38 -28 -31 -5 3 -9 10 -9 15
0 6 5 7 10 4 5 -3 10 -2 10 3 0 5 -14 12 -31 16 -23 4 -29 10 -25 24 4 11 -4
28 -19 44 -14 15 -25 30 -25 33 1 30 -2 35 -26 35 -25 0 -54 -20 -54 -38 0 -5
-9 -17 -20 -27 -13 -11 -18 -25 -14 -37 3 -12 0 -18 -10 -18 -9 0 -13 -6 -10
-13 5 -15 -27 -57 -44 -57 -6 0 -9 7 -6 15 4 9 -1 18 -12 22 -10 4 -19 2 -22
-5 -5 -15 -54 -16 -69 -1 -9 9 -21 4 -48 -19 -19 -18 -35 -35 -35 -39 0 -5 -8
-8 -18 -8 -9 0 -27 -6 -40 -13 -13 -8 -30 -11 -37 -8 -37 14 -117 -56 -146
-126 -6 -16 -15 -25 -20 -22 -5 3 -9 -1 -9 -8 -1 -16 -51 -72 -73 -81 -9 -3
-17 -13 -17 -22 0 -9 -9 -15 -22 -15 l-23 0 23 -18 23 -18 -24 -20 c-22 -19
-25 -20 -36 -5 -6 9 -9 11 -6 4 8 -18 -5 -42 -20 -37 -10 4 -12 -1 -8 -15 6
-22 -12 -30 -20 -8 -2 7 -10 0 -17 -15 -7 -15 -21 -30 -32 -33 -10 -4 -18 -10
-18 -14 0 -17 -69 -83 -82 -78 -9 4 -10 6 0 6 6 1 12 7 12 15 0 8 5 16 12 18
7 3 8 7 2 10 -16 11 -74 -32 -74 -54 0 -15 5 -19 20 -15 11 3 22 2 24 -2 7
-10 -7 -29 -24 -33 -8 -2 -19 -12 -25 -23 -6 -11 -20 -24 -32 -30 -25 -11 -35
-39 -20 -54 7 -7 3 -8 -12 -4 -11 3 -28 0 -36 -7 -18 -15 -20 -34 -2 -25 6 4
-4 -7 -23 -24 -19 -17 -43 -33 -52 -36 -10 -4 -18 -15 -18 -25 0 -11 -9 -24
-20 -30 -11 -6 -20 -16 -20 -23 0 -7 -19 -20 -43 -30 -32 -14 -39 -20 -27 -27
11 -7 9 -11 -13 -19 -19 -7 -29 -20 -33 -41 -4 -16 -5 -31 -3 -32 2 -2 -6 -14
-18 -27 -14 -15 -28 -21 -38 -17 -13 5 -15 1 -10 -14 4 -14 1 -22 -12 -27 -22
-7 -62 -53 -63 -71 0 -7 -13 -15 -30 -18 -16 -4 -27 -10 -24 -15 3 -5 1 -9 -5
-9 -5 0 -24 -15 -41 -32 -24 -26 -32 -30 -39 -19 -8 12 -12 11 -28 -4 -10 -10
-16 -20 -14 -23 1 -2 -6 -15 -18 -28 -12 -13 -21 -36 -21 -52 0 -22 -2 -24
-11 -12 -8 11 -9 8 -5 -15 l6 -30 -20 24 c-16 19 -20 20 -20 6 0 -9 -10 -25
-23 -36 -12 -10 -17 -18 -10 -19 6 0 15 5 18 10 3 6 13 10 22 10 13 0 13 -3 3
-15 -7 -8 -19 -15 -26 -15 -8 0 -14 -5 -14 -11 0 -6 -7 -17 -16 -26 -8 -9 -13
-22 -10 -29 3 -8 2 -14 -2 -14 -4 0 -12 -10 -17 -22 -6 -13 -16 -22 -23 -20
-7 1 -11 -1 -11 -5 4 -25 -3 -43 -17 -43 -12 0 -15 -6 -10 -26 4 -15 3 -23 -2
-20 -5 3 -20 -3 -32 -14 -13 -11 -27 -20 -31 -20 -5 0 -11 -11 -15 -25 -3 -14
-10 -22 -15 -19 -5 3 -9 -9 -9 -26 0 -27 -2 -30 -20 -20 -16 9 -19 8 -13 -7 5
-13 2 -15 -11 -10 -12 5 -19 0 -25 -16 -5 -12 -18 -23 -30 -24 -11 -1 -44 -26
-74 -56 -29 -30 -63 -57 -75 -61 -12 -4 -22 -11 -22 -15 0 -11 -77 -91 -88
-91 -15 0 -72 -62 -78 -86 -3 -13 -10 -24 -14 -24 -13 0 -72 -98 -66 -109 3
-5 -1 -8 -10 -7 -9 0 -24 -14 -34 -33 -11 -18 -28 -43 -38 -55 -11 -11 -23
-31 -26 -43 -4 -11 -13 -24 -21 -27 -8 -3 -15 -11 -15 -19 0 -7 -13 -26 -29
-41 -16 -16 -32 -39 -35 -52 -4 -14 -32 -60 -64 -104 -68 -95 -113 -165 -128
-200 -6 -14 -20 -34 -30 -44 -10 -10 -19 -25 -20 -32 -1 -7 -12 -27 -24 -44
-12 -16 -37 -60 -55 -96 -19 -37 -40 -74 -48 -83 -17 -20 -38 -69 -44 -101 -2
-13 -10 -28 -16 -32 -7 -4 -9 -8 -5 -8 4 0 -31 -74 -78 -165 -46 -90 -84 -170
-84 -177 0 -7 -13 -28 -28 -46 -16 -18 -34 -49 -42 -70 -7 -20 -28 -68 -46
-106 -19 -38 -34 -74 -34 -81 0 -6 -5 -16 -11 -22 -11 -11 -62 -121 -100 -218
-11 -27 -29 -68 -40 -91 -10 -22 -19 -46 -19 -52 0 -7 -5 -12 -10 -12 -6 0 -9
-3 -8 -7 3 -12 -11 -53 -32 -98 -11 -22 -31 -74 -44 -115 -32 -96 -81 -233
-88 -245 -2 -6 -15 -48 -27 -95 -13 -47 -29 -98 -36 -115 -8 -16 -23 -64 -35
-105 -12 -41 -31 -101 -41 -133 -10 -31 -19 -78 -19 -105 0 -26 -7 -72 -16
-102 -9 -30 -19 -72 -24 -93 -9 -44 -18 -56 -29 -39 -4 7 -17 -28 -30 -85 -58
-251 -83 -364 -99 -438 -14 -71 -16 -232 -19 -1447 l-3 -1368 9957 0 9958 0
-1 103 c0 56 3 143 8 192 5 50 11 164 13 255 2 91 7 183 12 205 4 22 5 137 2
255 -6 204 -11 270 -24 368 -4 29 -2 42 6 42 7 0 9 10 5 28 -3 15 -8 43 -10
62 -12 108 -38 296 -51 370 -23 128 -35 211 -39 255 -5 58 -35 237 -42 255 -7
16 -9 29 -19 100 -3 25 -10 56 -15 70 -7 22 -14 58 -25 145 -2 11 -8 47 -14
80 -6 33 -13 76 -15 95 -3 19 -14 85 -25 145 -11 61 -25 139 -31 175 -19 109
-31 173 -40 210 -5 19 -12 52 -15 73 -3 20 -11 37 -18 37 -9 0 -9 2 0 8 10 6
8 20 -7 62 -11 30 -20 64 -20 75 0 11 -6 29 -14 40 -20 30 -27 94 -13 116 9
16 9 21 -1 28 -7 4 -12 14 -10 22 2 9 -7 15 -25 17 -19 2 -31 11 -38 29 -13
35 -22 170 -11 177 10 6 3 66 -8 66 -5 0 -6 9 -3 19 3 10 -5 41 -18 68 -41 86
-47 107 -37 132 7 19 4 29 -11 45 -11 12 -20 23 -19 26 0 11 -26 60 -32 60 -4
0 -6 18 -5 40 2 28 -2 40 -11 40 -9 0 -14 12 -14 35 0 19 -5 35 -11 35 -5 0
-7 6 -3 13 5 7 0 6 -11 -3 -10 -8 -16 -10 -12 -4 7 13 -9 71 -26 92 -6 8 -12
21 -13 30 -2 10 -8 35 -13 57 -11 42 -25 103 -35 144 -12 54 -28 91 -38 91 -6
0 -9 3 -5 6 7 8 -12 61 -56 155 -30 65 -50 112 -91 212 -6 15 -14 27 -18 27
-5 0 -8 6 -8 14 0 8 -6 21 -12 28 -15 16 -68 119 -68 132 0 5 -13 24 -30 43
-16 18 -30 40 -30 48 0 8 -4 15 -10 15 -5 0 -10 6 -10 13 0 7 -9 32 -20 55
-11 22 -20 47 -20 55 0 8 -7 20 -15 27 -8 7 -15 18 -15 24 0 6 -14 24 -30 40
-17 16 -36 48 -42 70 -7 22 -21 49 -30 58 -10 10 -18 23 -18 30 0 6 -11 26
-25 44 -14 18 -25 37 -25 42 0 6 -6 12 -14 15 -7 3 -27 30 -45 61 -17 31 -40
65 -51 76 -11 11 -20 22 -19 26 1 12 -47 64 -61 65 -10 0 -11 2 -3 6 20 7 -5
46 -24 39 -11 -5 -13 -2 -9 10 3 9 -5 29 -19 48 -14 18 -25 38 -25 44 0 7 -4
12 -10 12 -5 0 -10 -4 -10 -10 0 -5 -8 -10 -17 -10 -15 0 -14 2 3 15 16 12 17
16 4 24 -8 5 -18 7 -24 4 -5 -4 -7 3 -4 15 4 12 2 22 -3 22 -5 0 -12 7 -16 16
-6 17 -49 68 -110 132 -18 18 -41 48 -52 65 -11 18 -29 44 -41 56 -11 13 -20
27 -20 31 0 4 -12 13 -26 20 -17 9 -24 20 -21 32 4 13 -2 20 -19 24 -15 4 -24
13 -24 25 0 10 -13 32 -30 49 -16 17 -30 27 -30 23 0 -4 -12 11 -26 35 -14 23
-29 42 -33 42 -5 0 -20 17 -34 39 -14 21 -48 60 -76 86 -28 26 -48 52 -45 56
3 5 -3 12 -13 16 -10 4 -23 12 -29 17 -6 6 -21 18 -33 26 -11 8 -21 20 -21 27
0 7 -6 13 -12 13 -17 1 -58 35 -58 48 0 5 -7 13 -16 16 -15 6 -15 8 1 26 17
19 17 21 2 38 -24 26 -21 42 8 42 14 0 25 4 25 8 0 5 -10 8 -22 8 -14 -1 -22
4 -20 12 1 7 -10 17 -25 23 -18 7 -23 13 -15 18 8 5 -6 23 -45 57 -32 27 -79
70 -104 97 -26 26 -51 47 -55 47 -5 0 -18 13 -29 29 -17 26 -20 27 -31 13 -10
-14 -12 -13 -18 6 -4 12 -16 27 -26 32 -12 6 -18 20 -18 38 l1 27 59 -29 c45
-22 62 -26 70 -18 9 9 8 12 -3 12 -9 0 -24 17 -35 38 -10 20 -22 38 -26 40 -4
2 -58 54 -121 115 -63 62 -134 129 -158 149 -24 20 -79 70 -121 111 -43 41
-80 72 -82 70 -2 -3 -7 4 -10 15 -4 10 -18 24 -31 30 -14 7 -28 19 -31 27 -4
8 -13 15 -21 15 -9 0 -13 6 -10 14 3 8 -2 17 -11 20 -25 8 -55 29 -69 48 -7 9
-30 27 -50 39 -21 13 -54 40 -75 61 -21 21 -42 38 -48 38 -5 0 -10 6 -10 14 0
8 -20 24 -45 36 -30 14 -45 28 -45 41 0 12 -5 16 -14 13 -8 -3 -17 2 -20 13
-4 11 -24 29 -45 41 -21 12 -52 38 -68 57 -17 19 -38 35 -47 35 -9 0 -16 5
-16 10 0 6 -4 10 -10 10 -5 0 -19 9 -30 20 -11 11 -26 20 -33 20 -7 0 -21 14
-30 30 -10 17 -22 31 -28 31 -5 1 -13 2 -18 3 -6 0 -19 11 -31 24 -11 12 -25
22 -31 22 -6 0 -7 5 -4 10 4 6 -5 10 -19 10 -14 0 -26 6 -26 13 0 6 -14 18
-31 26 -16 7 -44 26 -62 42 -17 16 -41 32 -52 35 -21 7 -76 43 -86 57 -3 5 -9
8 -13 8 -19 -3 -27 0 -21 8 3 5 -5 13 -17 17 -13 4 -37 17 -54 30 -17 13 -33
22 -36 19 -3 -3 -11 1 -18 10 -7 8 -19 15 -26 15 -8 0 -14 5 -14 10 0 6 -9 10
-20 10 -11 0 -25 9 -32 20 -7 11 -18 20 -25 20 -6 0 -19 10 -28 23 -8 12 -19
21 -23 21 -12 -2 -52 19 -52 28 0 4 -9 8 -20 8 -11 0 -20 7 -20 15 0 8 -6 12
-14 9 -7 -3 -20 1 -27 8 -8 7 -33 22 -56 32 -24 11 -43 23 -43 28 0 4 -11 8
-25 8 -15 0 -25 6 -25 14 0 8 -13 19 -29 24 -16 6 -38 19 -48 29 -10 10 -32
20 -48 22 -16 1 -37 12 -46 23 -10 10 -20 19 -23 18 -17 -4 -65 13 -60 21 3 5
-8 12 -25 15 -17 4 -28 10 -26 14 6 9 -34 25 -42 17 -2 -3 -13 3 -24 14 -10
10 -26 19 -35 19 -8 0 -12 4 -9 10 3 5 0 7 -8 4 -8 -3 -18 -1 -22 5 -3 6 -14
11 -24 11 -10 0 -24 6 -30 14 -6 7 -24 16 -40 19 -16 3 -35 12 -42 19 -28 27
-53 43 -45 30 7 -12 -55 19 -83 41 -7 6 -20 12 -29 13 -8 2 -18 8 -22 14 -4 7
-10 11 -14 11 -13 -2 -56 11 -56 18 0 7 -61 34 -72 32 -5 0 -36 12 -70 28
-132 60 -158 71 -168 71 -5 0 -38 14 -72 30 -34 17 -69 30 -79 30 -10 0 -20 4
-24 9 -3 5 -19 12 -35 16 -17 4 -30 11 -30 16 0 6 -6 9 -12 7 -13 -3 -36 5
-130 43 -26 10 -57 19 -70 19 -13 0 -31 9 -41 20 -9 11 -23 17 -32 14 -8 -4
-21 -2 -28 3 -6 6 -34 16 -62 22 -27 7 -78 25 -113 39 -35 14 -79 26 -98 26
-18 1 -36 7 -38 13 -3 7 -12 10 -21 7 -8 -4 -21 -2 -28 4 -6 5 -48 19 -92 30
-44 12 -105 28 -135 37 -30 9 -75 19 -100 22 -25 3 -54 10 -65 16 -11 6 -24
10 -29 9 -4 -2 -13 2 -20 7 -6 6 -27 13 -46 16 -19 3 -59 10 -87 16 -29 6 -57
8 -62 5 -5 -3 -14 1 -21 10 -11 12 -15 12 -21 2 -6 -9 -9 -10 -9 -1 0 10 -59
28 -80 25 -3 0 -10 4 -16 9 -6 5 -28 11 -50 14 -21 2 -61 10 -87 16 -26 6 -57
9 -67 6 -11 -3 -20 0 -20 5 0 6 -14 8 -34 5 -18 -3 -38 -1 -44 5 -5 5 -27 10
-48 11 -22 0 -43 3 -49 8 -5 4 -22 7 -36 7 -15 0 -50 5 -78 12 -28 7 -57 10
-65 7 -7 -3 -18 -1 -22 3 -5 5 -42 11 -82 14 -39 3 -76 7 -81 10 -15 10 -92
17 -191 18 -52 0 -99 3 -105 7 -5 3 -19 6 -30 7 -11 1 -29 5 -39 9 -15 7 -17
5 -11 -6 7 -11 6 -12 -6 -2 -9 7 -38 12 -67 10 -29 -1 -52 1 -52 5 0 5 -10 8
-22 7 -21 0 -21 -1 -4 -8 14 -5 16 -10 8 -15 -13 -8 -48 8 -45 21 0 4 -4 6
-10 4 -27 -9 -181 -3 -185 7 -2 8 -12 8 -30 1 -18 -7 -28 -7 -30 0 -5 15 -39
14 -44 0 -3 -9 -10 -9 -27 0 -17 10 -26 10 -37 0 -11 -9 -14 -9 -14 1 0 10 -3
10 -14 1 -8 -7 -17 -8 -20 -3 -3 6 -62 9 -131 8 -69 0 -125 2 -125 5 0 9 -91
5 -97 -4z m-1803 -247 c0 -5 -8 -10 -17 -10 -15 0 -16 2 -3 10 19 12 20 12 20
0z m4442 -122 c19 -19 20 -23 6 -26 -23 -5 -91 26 -83 38 11 18 54 11 77 -12z
m-4762 -47 c0 -4 -11 -6 -25 -3 -14 2 -25 6 -25 8 0 2 11 4 25 4 14 0 25 -4
25 -9z m-718 -285 c7 5 8 2 3 -6 -4 -7 -2 -16 6 -21 9 -6 10 -9 2 -9 -13 0
-43 38 -43 55 0 5 5 2 11 -8 6 -9 15 -14 21 -11z m184 -161 c1 -8 -2 -13 -7
-9 -5 3 -9 12 -9 21 0 19 13 9 16 -12z m1227 -24 c18 -7 18 -8 -1 -31 -12 -15
-25 -21 -36 -17 -10 4 -14 11 -11 17 4 6 -5 10 -20 10 -16 0 -24 4 -19 11 3 6
17 8 30 5 14 -4 24 -2 24 4 0 11 7 12 33 1z m-2148 -191 c-3 -5 -14 -10 -23
-9 -14 0 -13 2 3 9 27 11 27 11 20 0z m-1255 -504 c0 -3 -4 -8 -10 -11 -5 -3
-10 -1 -10 4 0 6 5 11 10 11 6 0 10 -2 10 -4z m-420 -206 c0 -5 -2 -10 -4 -10
-3 0 -8 5 -11 10 -3 6 -1 10 4 10 6 0 11 -4 11 -10z m8585 -620 c3 -5 2 -10
-4 -10 -5 0 -13 5 -16 10 -3 6 -2 10 4 10 5 0 13 -4 16 -10z m-2488 -617 c10
-13 16 -15 19 -5 7 15 24 16 24 1 0 -16 46 -54 97 -81 26 -14 43 -30 43 -40 0
-10 5 -19 10 -19 31 -4 60 -20 60 -33 0 -15 73 -96 86 -96 6 0 29 -13 51 -29
22 -16 49 -32 60 -35 23 -7 93 -68 93 -80 0 -19 78 -100 127 -133 29 -19 53
-40 53 -47 0 -7 11 -19 25 -26 14 -8 42 -34 62 -58 33 -40 39 -43 69 -37 26 4
34 2 34 -9 0 -8 -6 -16 -12 -19 -9 -3 -7 -13 9 -34 13 -18 20 -39 17 -51 -7
-26 12 -38 33 -20 14 11 16 11 8 -1 -5 -9 -1 -19 14 -30 14 -11 20 -23 16 -33
-6 -15 -12 -13 -45 10 -22 15 -39 32 -40 39 0 6 -9 14 -19 18 -13 4 -18 12
-14 28 4 18 3 19 -7 7 -9 -11 -13 -12 -17 -2 -2 6 -11 12 -19 12 -7 0 -21 12
-30 26 -10 14 -33 34 -53 44 -20 10 -43 27 -52 37 -23 26 -58 53 -68 53 -31 0
-99 61 -114 102 -3 9 -25 22 -47 28 -28 7 -57 27 -88 59 -26 27 -58 54 -72 61
-14 7 -31 21 -38 32 -7 10 -24 18 -36 18 -13 0 -26 7 -30 15 -3 8 0 15 7 15 7
0 -2 9 -20 19 -56 35 -73 53 -61 68 11 14 8 15 -31 17 -17 1 -35 15 -55 43
-17 23 -37 42 -43 42 -7 1 -13 7 -13 15 0 8 6 17 13 19 6 3 3 6 -8 7 l-20 1
20 10 c16 7 13 8 -12 4 -18 -2 -33 0 -33 5 0 5 -10 12 -22 16 -21 6 -20 7 8
19 16 8 23 14 17 14 -7 1 -13 8 -13 16 0 21 40 19 57 -2z m-7910 -135 c-3 -8
-6 -5 -6 6 -1 11 2 17 5 13 3 -3 4 -12 1 -19z m9616 -394 c9 -3 17 -12 17 -20
0 -9 11 -14 31 -14 17 0 28 -4 24 -10 -3 -5 4 -11 17 -11 30 -2 30 -2 51 7 14
5 12 -1 -8 -22 -15 -16 -29 -24 -33 -19 -4 6 -17 16 -29 22 -18 11 -21 10 -17
-1 3 -8 15 -16 26 -19 14 -4 17 -10 12 -19 -5 -7 -9 -16 -10 -20 -1 -5 -2 -11
-3 -14 0 -4 -8 -1 -16 6 -12 10 -15 10 -15 0 0 -8 -3 -10 -6 -7 -4 4 -2 12 4
20 7 8 7 18 2 27 -7 10 -10 11 -10 3 0 -17 -20 -16 -39 1 -9 8 -30 17 -48 20
-24 6 -34 3 -41 -10 -9 -16 -12 -16 -27 -4 -15 12 -15 14 -1 22 9 5 20 7 25 3
13 -8 24 31 16 56 -6 19 -4 20 27 14 18 -3 41 -9 51 -11z m-823 -105 c0 -5 4
-7 10 -4 15 9 50 -13 112 -71 52 -50 68 -59 92 -55 13 3 47 -31 57 -57 5 -12
20 -27 34 -32 14 -5 31 -14 38 -19 52 -42 97 -82 131 -118 23 -23 59 -54 81
-69 22 -14 65 -50 95 -79 168 -162 210 -204 210 -210 0 -4 7 -13 16 -22 9 -9
14 -29 13 -47 -3 -37 14 -75 26 -56 4 7 2 16 -6 21 -9 6 -10 9 -2 9 6 0 14 -4
18 -10 3 -5 12 -7 20 -3 9 3 15 -1 15 -11 0 -9 5 -16 10 -16 6 0 10 -4 10 -8
0 -5 -20 -8 -45 -7 -49 1 -54 -4 -27 -31 16 -17 16 -18 -1 -11 -10 4 -23 7
-28 7 -6 0 -9 10 -7 22 2 13 -1 23 -7 24 -10 1 -29 7 -72 25 -13 5 -23 13 -23
19 0 5 -7 10 -15 10 -8 0 -15 6 -15 14 0 7 -11 25 -24 39 -17 19 -30 24 -47
20 -18 -5 -21 -3 -16 10 4 12 -9 23 -53 45 -33 16 -57 32 -53 35 3 4 1 7 -5 7
-7 0 -12 7 -12 15 0 8 5 15 10 15 16 0 12 18 -10 40 -25 25 -34 26 -26 3 5
-16 5 -16 -6 -2 -7 9 -19 14 -25 12 -7 -3 -13 1 -13 8 0 7 -8 5 -21 -7 -16
-14 -23 -15 -26 -6 -3 6 -13 12 -23 12 -10 0 -22 5 -25 10 -3 6 5 10 19 10 14
0 28 -4 31 -10 3 -5 10 -10 15 -10 11 0 1 60 -12 77 -5 7 -7 16 -5 21 8 12 -7
32 -18 24 -6 -4 -15 -16 -21 -27 -7 -12 -22 -20 -38 -21 -32 -1 -37 5 -29 34
4 16 13 22 34 22 35 0 38 16 5 32 -20 8 -24 16 -20 37 4 23 -5 33 -85 91 -50
36 -88 70 -86 77 2 6 -11 24 -29 40 -18 15 -55 46 -81 68 -49 42 -74 75 -55
75 5 0 10 -5 10 -11z m255 -89 c3 -5 -1 -10 -9 -10 -9 0 -16 5 -16 10 0 6 4
10 9 10 6 0 13 -4 16 -10z m110 -400 c-3 -5 -10 -10 -16 -10 -5 0 -9 5 -9 10
0 6 7 10 16 10 8 0 12 -4 9 -10z m342 -296 c-12 -13 -37 6 -37 28 l0 22 22
-21 c12 -13 19 -25 15 -29z"/>
<path d="M10820 10900 c0 -5 5 -10 11 -10 5 0 7 5 4 10 -3 6 -8 10 -11 10 -2
0 -4 -4 -4 -10z"/>
<path d="M7848 13743 c6 -2 18 -2 25 0 6 3 1 5 -13 5 -14 0 -19 -2 -12 -5z"/>
<path d="M7378 13583 c6 -2 18 -2 25 0 6 3 1 5 -13 5 -14 0 -19 -2 -12 -5z"/>
<path d="M7020 13490 c0 -5 5 -10 11 -10 5 0 7 5 4 10 -3 6 -8 10 -11 10 -2 0
-4 -4 -4 -10z"/>
<path d="M6664 13315 c-19 -14 -19 -14 3 -15 28 0 53 10 53 21 0 14 -34 11
-56 -6z"/>
<path d="M7100 13034 c0 -8 5 -12 10 -9 6 4 8 11 5 16 -9 14 -15 11 -15 -7z"/>
<path d="M5693 12863 c-28 -19 -30 -43 -3 -43 11 0 20 3 20 8 0 4 10 12 22 17
12 6 23 16 26 23 5 17 -38 14 -65 -5z"/>
<path d="M4370 11989 c0 -5 5 -7 10 -4 6 3 10 8 10 11 0 2 -4 4 -10 4 -5 0
-10 -5 -10 -11z"/>
<path d="M3400 11479 c-14 -10 -21 -19 -16 -19 5 0 3 -7 -4 -15 -9 -10 -9 -15
-1 -15 10 0 14 12 9 27 -2 3 10 12 26 18 16 7 25 15 20 18 -5 3 -21 -3 -34
-14z"/>
<path d="M385 7600 c-4 -12 -5 -24 -2 -27 3 -2 8 5 12 17 4 12 5 24 2 27 -3 2
-8 -5 -12 -17z"/>
<path d="M231 7130 c-7 -23 -10 -44 -8 -47 7 -6 29 65 25 79 -2 6 -10 -8 -17
-32z"/>
<path d="M211 7063 c-1 -6 -4 -20 -7 -30 -5 -17 -5 -17 6 0 6 10 9 23 6 30 -3
9 -5 9 -5 0z"/>
<path d="M20112 5310 c0 -14 2 -19 5 -12 2 6 2 18 0 25 -3 6 -5 1 -5 -13z"/>
<path d="M20106 3033 c-4 -43 -9 -99 -13 -125 -5 -40 -3 -48 11 -48 14 0 16
16 16 125 0 69 -2 125 -4 125 -2 0 -6 -35 -10 -77z"/>
</g>
</svg>
